<svg width="293" height="51" fill="none" xmlns="http://www.w3.org/2000/svg"><path d="M103.413 45.043h-2.939V25.116l-6.426 19.927h-2.53l-6.391-19.927v19.927h-2.974V20.092h4.068l6.596 20.337 6.495-20.337h4.101v24.951zm7.691-21.123h-3.658v-3.828h3.658v3.828zm-.206 21.123h-3.178V27.406h3.178v17.637zm7.417 0h-3.178V20.092h3.178v24.951zm6.495-10.322h7.724c0-1.481-.216-2.69-.649-3.623a3.046 3.046 0 00-1.094-1.128c-.456-.296-.991-.445-1.606-.445-1.231 0-2.268.547-3.111 1.641-.706.889-1.128 2.074-1.264 3.555zm.068 2.563v.103c.068.524.194 1.048.376 1.572.228.592.535 1.185.923 1.777.387.57.934 1.06 1.64 1.47.228.16.581.308 1.06.444a7.92 7.92 0 001.743.171c.479 0 1.094-.068 1.846-.205.752-.16 1.663-.547 2.734-1.162v2.632c-1.002.615-2.039 1.014-3.11 1.196a11.418 11.418 0 01-3.179.103 8.297 8.297 0 01-2.768-.786c-.912-.456-1.652-.992-2.222-1.607-.661-.797-1.219-1.788-1.675-2.973-.456-1.208-.684-2.598-.684-4.17 0-1.3.16-2.484.479-3.555.342-1.071.832-1.994 1.47-2.769a7.173 7.173 0 012.358-1.811c.957-.479 2.062-.718 3.316-.718a6.69 6.69 0 012.905.65c.934.432 1.652 1.002 2.153 1.709.957 1.298 1.436 3.292 1.436 5.98v1.95h-10.801zm28.027-9.878l-6.084 17.637h-2.7l-6.665-17.637h3.179l4.819 13.364 4.478-13.364h2.973zm15.039 17.637h-3.076v-1.812c-.228.297-.74.695-1.538 1.197-.57.319-1.208.57-1.914.752-.684.16-1.492.239-2.427.239-.455 0-.98-.103-1.572-.308a4.255 4.255 0 01-1.504-.957 4.25 4.25 0 01-1.059-1.47c-.228-.592-.342-1.253-.342-1.982 0-1.322.353-2.46 1.059-3.418.707-.98 1.573-1.652 2.598-2.016.684-.251 1.401-.433 2.153-.547.775-.114 1.436-.171 1.983-.171h2.563v-1.436c0-.228-.045-.558-.137-.991a3.156 3.156 0 00-.478-1.265c-.228-.364-.581-.672-1.06-.922-.478-.274-1.048-.41-1.709-.41-.843 0-1.583.239-2.221.717-.616.479-.923 1.174-.923 2.085h-3.418c0-.775.125-1.458.376-2.05a5.012 5.012 0 011.196-1.607c.547-.501 1.253-.9 2.119-1.196.866-.32 1.823-.479 2.871-.479 2.12 0 3.726.581 4.82 1.743 1.093 1.162 1.64 2.575 1.64 4.238v12.066zm-3.076-6.63v-1.505c-.342 0-.843.012-1.504.034-.638 0-1.435.091-2.392.274a4.94 4.94 0 00-2.188.923c-.752.615-1.128 1.355-1.128 2.221 0 .912.24 1.561.718 1.949.479.364 1.071.547 1.777.547.274 0 .661-.058 1.162-.171.502-.137.946-.33 1.333-.582.821-.546 1.459-1.207 1.915-1.982.205-.433.307-1.003.307-1.709zm30.864 6.63h-13.193V20.092h12.886v2.837h-9.707v7.656h9.297v2.837h-9.297v8.784h10.014v2.837zm6.973-21.123h-3.657v-3.828h3.657v3.828zm-.205 21.123h-3.179V27.406h3.179v17.637zm17.637 0h-3.076V33.73c0-1.208-.285-2.234-.855-3.077-.456-.638-1.196-.957-2.222-.957-.911 0-1.731.433-2.461 1.3-.729.842-1.264 2.107-1.606 3.793a11.438 11.438 0 00-.273 2.53v7.724h-3.042V27.406h3.042v2.222c.227-.342.603-.786 1.127-1.333 1.071-.866 2.222-1.299 3.453-1.299 1.823 0 3.247.501 4.272 1.504 1.094 1.071 1.641 2.655 1.641 4.751v11.792zm14.868-4.717c0 .73-.137 1.424-.41 2.085a4.233 4.233 0 01-1.128 1.572c-.57.479-1.333.844-2.29 1.094-.934.228-1.96.342-3.076.342-1.299 0-2.94-.308-4.922-.923v-3.281c.661.456 1.469.843 2.426 1.162.957.296 1.789.444 2.496.444 1.184 0 2.062-.148 2.631-.444.798-.479 1.197-1.105 1.197-1.88 0-.524-.148-.968-.445-1.333-.273-.364-.649-.684-1.128-.957-.501-.273-1.173-.57-2.016-.889a38.355 38.355 0 01-2.393-1.093c-.661-.32-1.276-.832-1.845-1.538-.57-.707-.855-1.63-.855-2.769 0-1.572.558-2.78 1.675-3.623 1.116-.866 2.575-1.299 4.375-1.299 1.481 0 3.053.274 4.717.82v3.077a12.928 12.928 0 00-2.256-.957 7.985 7.985 0 00-2.666-.445c-.775 0-1.447.194-2.017.581-.547.365-.82.878-.82 1.538 0 .456.08.832.239 1.128.182.297.501.604.957.923.41.25 1.094.57 2.051.957.98.387 1.823.764 2.529 1.128.798.41 1.493.991 2.085 1.743.593.752.889 1.698.889 2.837zm11.621-10.356h-4.409V40.6c0 .433.102.865.307 1.298.137.32.354.559.65.718.319.137.74.205 1.264.205.525 0 1.231-.08 2.12-.239v2.666c-.775.114-1.664.17-2.666.17-1.595 0-2.792-.375-3.589-1.127-.775-.752-1.162-1.857-1.162-3.315V29.97h-2.666v-2.564h2.666V23.51l3.076-1.607v5.503h4.409v2.564zm5.195 4.75h7.725c0-1.48-.217-2.688-.65-3.622a3.043 3.043 0 00-1.093-1.128c-.456-.296-.991-.445-1.607-.445-1.23 0-2.267.547-3.11 1.641-.706.889-1.128 2.074-1.265 3.555zm.069 2.564v.103c.068.524.193 1.048.376 1.572.227.592.535 1.185.922 1.777.388.57.935 1.06 1.641 1.47.228.16.581.308 1.06.444a7.92 7.92 0 001.743.171c.478 0 1.094-.068 1.846-.205.751-.16 1.663-.547 2.734-1.162v2.632c-1.003.615-2.039 1.014-3.11 1.196a11.42 11.42 0 01-3.179.103 8.309 8.309 0 01-2.769-.786c-.911-.456-1.652-.992-2.221-1.607-.661-.797-1.219-1.788-1.675-2.973-.456-1.208-.684-2.598-.684-4.17 0-1.3.16-2.484.479-3.555.342-1.071.831-1.994 1.469-2.769a7.177 7.177 0 012.359-1.811c.957-.479 2.062-.718 3.315-.718a6.69 6.69 0 012.906.65c.934.432 1.652 1.002 2.153 1.709.957 1.298 1.435 3.292 1.435 5.98v1.95h-10.8zm17.568-13.364h-3.657v-3.828h3.657v3.828zm-.205 21.123h-3.179V27.406h3.179v17.637zm17.637 0h-3.077V33.73c0-1.208-.284-2.234-.854-3.077-.456-.638-1.196-.957-2.222-.957-.911 0-1.731.433-2.461 1.3-.729.842-1.264 2.107-1.606 3.793a11.438 11.438 0 00-.274 2.53v7.724h-3.042V27.406h3.042v2.222c.228-.342.604-.786 1.128-1.333 1.071-.866 2.222-1.299 3.453-1.299 1.822 0 3.247.501 4.272 1.504 1.094 1.071 1.641 2.655 1.641 4.751v11.792z" fill="#FFEEF9"/><path d="M21.5.25c.699 0 1.423.51 2.127 1.577.698 1.057 1.335 2.604 1.875 4.537C26.58 10.227 27.25 15.58 27.25 21.5c0 5.921-.67 11.273-1.748 15.136-.54 1.933-1.177 3.48-1.875 4.537-.704 1.067-1.428 1.577-2.127 1.577-.699 0-1.423-.51-2.127-1.577-.698-1.057-1.335-2.604-1.875-4.537C16.42 32.772 15.75 27.42 15.75 21.5c0-5.921.67-11.273 1.748-15.136.54-1.933 1.177-3.48 1.875-4.537C20.077.76 20.801.25 21.5.25z" stroke="#FFDDF4" stroke-width=".5"/><path d="M6.474 6.474c.494-.494 1.367-.646 2.62-.389 1.24.255 2.785.897 4.533 1.883 3.494 1.969 7.752 5.28 11.939 9.466 4.187 4.187 7.497 8.445 9.466 11.939.986 1.748 1.628 3.293 1.883 4.534.257 1.252.105 2.125-.389 2.619-.494.494-1.367.645-2.62.389-1.24-.255-2.785-.897-4.533-1.883-3.494-1.969-7.752-5.28-11.939-9.466-4.187-4.187-7.497-8.445-9.466-11.939-.986-1.748-1.628-3.293-1.883-4.534-.257-1.252-.105-2.125.389-2.619z" stroke="#FFDDF4" stroke-width=".5"/><path d="M36.526 6.474c.494.494.645 1.367.389 2.62-.255 1.24-.897 2.785-1.883 4.533-1.969 3.494-5.28 7.752-9.466 11.939-4.187 4.187-8.445 7.497-11.939 9.466-1.748.986-3.293 1.628-4.534 1.883-1.252.257-2.125.105-2.619-.389-.494-.494-.646-1.367-.389-2.62.255-1.24.897-2.785 1.883-4.533 1.969-3.494 5.28-7.752 9.466-11.939 4.187-4.187 8.445-7.497 11.939-9.466 1.748-.986 3.293-1.628 4.534-1.883 1.252-.257 2.125-.105 2.619.389z" stroke="#FFDDF4" stroke-width=".5"/><path d="M.25 21.5c0-.699.51-1.423 1.577-2.127 1.057-.698 2.604-1.335 4.537-1.875C10.227 16.42 15.58 15.75 21.5 15.75c5.921 0 11.273.67 15.136 1.748 1.933.54 3.48 1.177 4.537 1.875 1.067.704 1.577 1.428 1.577 2.127 0 .699-.51 1.423-1.577 2.127-1.057.698-2.604 1.335-4.537 1.875C32.772 26.58 27.42 27.25 21.5 27.25c-5.921 0-11.273-.67-15.136-1.748-1.933-.54-3.48-1.177-4.537-1.875C.76 22.923.25 22.199.25 21.5z" stroke="#FFDDF4" stroke-width=".5"/><circle cx="21.5" cy="22" r="2.5" fill="#FFDDF4" stroke="#FFDDF4"/><circle cx="36" cy="6.5" r="1" fill="#FFDDF4" stroke="#FFDDF4"/><circle cx="22" cy="42.5" r="1" fill="#FFDDF4" stroke="#FFDDF4"/><circle cx="16" cy="13.5" r="1" fill="#FFDDF4" stroke="#FFDDF4"/></svg>