<svg width="43" height="44" fill="none" xmlns="http://www.w3.org/2000/svg"><path d="M21.5.25c.699 0 1.423.51 2.127 1.577.698 1.057 1.335 2.604 1.875 4.537C26.58 10.227 27.25 15.58 27.25 21.5c0 5.921-.67 11.273-1.748 15.136-.54 1.933-1.177 3.48-1.875 4.537-.704 1.067-1.428 1.577-2.127 1.577-.699 0-1.423-.51-2.127-1.577-.698-1.057-1.335-2.604-1.875-4.537C16.42 32.772 15.75 27.42 15.75 21.5c0-5.921.67-11.273 1.748-15.136.54-1.933 1.177-3.48 1.875-4.537C20.077.76 20.801.25 21.5.25z" stroke="#FFDDF4" stroke-width=".5"/><path d="M6.474 6.474c.494-.494 1.367-.646 2.62-.389 1.24.255 2.785.897 4.533 1.883 3.494 1.969 7.752 5.28 11.939 9.466 4.187 4.187 7.497 8.445 9.466 11.939.986 1.748 1.628 3.293 1.883 4.534.257 1.252.105 2.125-.389 2.619-.494.494-1.367.645-2.62.389-1.24-.255-2.785-.897-4.533-1.883-3.494-1.969-7.752-5.28-11.939-9.466-4.187-4.187-7.497-8.445-9.466-11.939-.986-1.748-1.628-3.293-1.883-4.534-.257-1.252-.105-2.125.389-2.62z" stroke="#FFDDF4" stroke-width=".5"/><path d="M36.526 6.474c.494.494.645 1.367.389 2.62-.255 1.24-.897 2.785-1.883 4.533-1.969 3.494-5.28 7.752-9.466 11.939-4.187 4.187-8.445 7.497-11.939 9.466-1.748.986-3.293 1.628-4.534 1.883-1.252.257-2.125.105-2.619-.389-.494-.494-.646-1.367-.389-2.62.255-1.24.897-2.785 1.883-4.533 1.969-3.494 5.28-7.752 9.466-11.939 4.187-4.187 8.445-7.497 11.939-9.466 1.748-.986 3.293-1.628 4.534-1.883 1.252-.257 2.125-.105 2.619.389z" stroke="#FFDDF4" stroke-width=".5"/><path d="M.25 21.5c0-.699.51-1.423 1.577-2.127 1.057-.698 2.604-1.335 4.537-1.875C10.227 16.42 15.58 15.75 21.5 15.75c5.921 0 11.273.67 15.136 1.748 1.933.54 3.48 1.177 4.537 1.875 1.067.704 1.577 1.428 1.577 2.127 0 .699-.51 1.423-1.577 2.127-1.057.698-2.604 1.335-4.537 1.875C32.772 26.58 27.42 27.25 21.5 27.25c-5.921 0-11.273-.67-15.136-1.748-1.933-.54-3.48-1.177-4.537-1.875C.76 22.923.25 22.199.25 21.5z" stroke="#FFDDF4" stroke-width=".5"/><circle cx="21.5" cy="22" r="2.5" fill="#FFDDF4" stroke="#FFDDF4"/><circle cx="36" cy="6.5" r="1" fill="#FFDDF4" stroke="#FFDDF4"/><circle cx="22" cy="42.5" r="1" fill="#FFDDF4" stroke="#FFDDF4"/><circle cx="16" cy="13.5" r="1" fill="#FFDDF4" stroke="#FFDDF4"/></svg>