<svg width="18" height="22" fill="none" xmlns="http://www.w3.org/2000/svg"><path d="M1.23 21.57c-.34 0-.62-.09-.84-.27-.2-.18-.32-.4-.36-.66-.02-.26.08-.52.3-.78l7.26-9.78v.93L.75 1.77c-.22-.3-.32-.58-.3-.84A.96.96 0 01.78.27C1 .09 1.26 0 1.56 0c.28 0 .52.06.72.18.2.12.41.33.63.63l6.15 8.43h-.78L14.4.81c.2-.3.4-.51.6-.63.2-.12.44-.18.72-.18.32 0 .58.09.78.27.22.16.34.38.36.66.02.26-.08.54-.3.84l-6.84 9.24v-.93l7.26 9.78c.2.26.28.52.24.78a.96.96 0 01-.33.66c-.2.18-.47.27-.81.27-.26 0-.5-.07-.72-.21-.2-.12-.41-.32-.63-.6l-6.57-8.97h.96l-6.57 8.97c-.2.28-.41.48-.63.6-.22.14-.45.21-.69.21z" fill="#fff"/></svg>